inDegrees=no
num_controls=7
num_derivatives=13
num_iterations=131
num_multipliers=7
num_parameters=0
num_slacks=7
num_states=26
objective=0.496974
objective_accelerations=0.042698
objective_balance=0.003586
objective_effort=0.039992
objective_height=0.404869
objective_ligament=0.005829
solver_duration=1492.772958
status=Solve_Succeeded
success=true
DataType=double
version=3
OpenSimVersion=4.5
endheader
time	/jointset/ground_pelvis/pelvis_tilt/value	/jointset/ground_pelvis/pelvis_tx/value	/jointset/ground_pelvis/pelvis_ty/value	/jointset/hip_r/hip_flexion_r/value	/jointset/hip_r/hip_adduction_r/value	/jointset/hip_r/hip_rotation_r/value	/jointset/back/lumbar_extension/value	/jointset/patellofemoral_r/patellar_flexion_r/value	/jointset/knee_r/knee_flexion_r/value	/jointset/knee_r/knee_adduction_r/value	/jointset/knee_r/knee_rotation_r/value	/jointset/ankle_r/ankle_angle_r/value	/jointset/subtalar_r/subtalar_angle_r/value	/jointset/ground_pelvis/pelvis_tilt/speed	/jointset/ground_pelvis/pelvis_tx/speed	/jointset/ground_pelvis/pelvis_ty/speed	/jointset/hip_r/hip_flexion_r/speed	/jointset/hip_r/hip_adduction_r/speed	/jointset/hip_r/hip_rotation_r/speed	/jointset/back/lumbar_extension/speed	/jointset/patellofemoral_r/patellar_flexion_r/speed	/jointset/knee_r/knee_flexion_r/speed	/jointset/knee_r/knee_adduction_r/speed	/jointset/knee_r/knee_rotation_r/speed	/jointset/ankle_r/ankle_angle_r/speed	/jointset/subtalar_r/subtalar_angle_r/speed	/forceset/tau_hip_flexion_r	/forceset/tau_hip_adduction_r	/forceset/tau_hip_rotation_r	/forceset/tau_knee_flexion_r	/forceset/tau_ankle_angle_r	/forceset/tau_subtalar_angle_r	/forceset/tau_lumbar_extension	lambda_cid13_p0	lambda_cid14_p0	lambda_cid14_p1	lambda_cid14_p2	lambda_cid14_p3	lambda_cid14_p4	lambda_cid14_p5	/jointset/ground_pelvis/pelvis_tilt/accel	/jointset/ground_pelvis/pelvis_tx/accel	/jointset/ground_pelvis/pelvis_ty/accel	/jointset/hip_r/hip_flexion_r/accel	/jointset/hip_r/hip_adduction_r/accel	/jointset/hip_r/hip_rotation_r/accel	/jointset/back/lumbar_extension/accel	/jointset/patellofemoral_r/patellar_flexion_r/accel	/jointset/knee_r/knee_flexion_r/accel	/jointset/knee_r/knee_adduction_r/accel	/jointset/knee_r/knee_rotation_r/accel	/jointset/ankle_r/ankle_angle_r/accel	/jointset/subtalar_r/subtalar_angle_r/accel	gamma_cid13_p0	gamma_cid14_p0	gamma_cid14_p1	gamma_cid14_p2	gamma_cid14_p3	gamma_cid14_p4	gamma_cid14_p5
0	-0.006515347928943721	0.09626027706527544	0.9427240815671312	0.1762555222360518	-0.2321526207190897	-0.2616406306110838	-0.038598046466844	0.0731786387345133	0.07317863873451017	0.1745326037410651	0.1745328652298563	0.03247278518263602	-0.003451902354094986	0	0	0	0	0	0	0	0	0	0	0	0	0	0.23488511669949	-0.1741918897312524	-0.0477533188126877	-0.4299215666199185	0.4411268004627238	-0.1476492249024581	-0.1277196449303138	-39.07629970490287	92.05673695508202	-38.24653923838719	-4.589671330306082	-44.93308586001189	-677.3006158834712	61.34577458421031	-1.908127400026926	-0.8922178699914799	-0.6171572539191277	8.779093758113829	-0.05634250329033437	2.684063946199184	-4.913373736381417	9.664902164538985	9.664902164538981	-2.490793866872928	0.1434978407095668	3.556219569925863	0.7345170594587987	9.142729587081976e-08	2.395379383297773e-08	-7.011220734424699e-07	1.949040525850933e-07	5.231189903141516e-08	-1.825276926076568e-08	-3.498491154384302e-07
0.01	-0.006603792740279266	0.09621589778641243	0.9426944014076758	0.176679929089227	-0.2321543595111558	-0.2614990015612582	-0.03884634563083725	0.07364822590663031	0.07364822590663188	0.1744086622502142	0.1745287271656023	0.03264576568831409	-0.003415247801116274	-0.01757911485688168	-0.008883698023835668	-0.005923836738612688	0.08452220249477238	-0.0003919825633298215	0.0281533074050597	-0.0493322829503769	0.09351711706533597	0.09351711706532538	-0.02457063953337365	-0.0007782228529279473	0.03437340342396309	0.007234262955035108	0.2270763336354458	-0.1829289460892575	-0.04553769854173669	-0.4177034837628175	0.4203176697151519	-0.1326197910803256	-0.1217555563069332	-39.09197038902192	85.91474647113461	-32.85705628169675	-5.377647304344994	-40.86080059443612	-677.5663570909843	71.14590626727295	-1.666323651515038	-0.8876116440610249	-0.5781712615073435	8.234909991595469	-0.0373308432223373	2.855138698755815	-4.894023096995693	9.135050588280603	9.13505058827945	-2.407639378986866	-0.1810140693433427	3.344509109897957	0.7032963796340855	1.183906361453262e-07	1.622839326948586e-08	-9.126572172956623e-07	1.739743968203236e-07	8.324297731923341e-08	-1.879999974127921e-07	-3.934676927392476e-07
0.02	-0.006864732724786293	0.09608244835221461	0.9426058480052991	0.1779387832666344	-0.2321613590709282	-0.2610810045251613	-0.03957814112886073	0.07504097107155908	0.07504097107155969	0.1740455262875227	0.1745183005285923	0.03315580190448511	-0.003309167525365574	-0.03449903463360187	-0.0178140310669641	-0.01177464858423536	0.1668894648470046	-0.001052153541379508	0.05527359725397669	-0.09669926680593892	0.1846315985606596	0.1846315985606557	-0.04783889436343921	-0.00125771454782796	0.06741114209858234	0.01388514455439933	0.2192675505714	-0.1916660024472653	-0.04332207827085893	-0.4054854009057056	0.39950853896758	-0.1175903572581948	-0.1157914676835527	-39.1384094838477	79.85680143325247	-27.47223814815892	-6.142741585886598	-36.99249352750968	-676.5670253034555	80.72507237007167	-1.776288383994561	-0.901544873850095	-0.6025522753211214	8.348105729605802	-0.1099801862343044	2.477460434970582	-4.520313917418398	9.184375050536529	9.184375050539977	-2.230316926211317	0.2032440723152131	3.289086620057026	0.6178407883246094	1.453539764198326e-07	8.502992705993985e-09	-1.124192361148855e-06	1.530447410555539e-07	1.141740556070517e-07	-3.577472255648186e-07	-4.370862700400651e-07
0.03	-0.007292098470580953	0.09585951821389575	0.942458896171787	0.1800112433705355	-0.2321762932224806	-0.2603985180951987	-0.04077356152246679	0.07733344931050194	0.07733344931049865	0.1734564486619665	0.1745059798767043	0.03398969980768436	-0.003139418706535828	-0.05087380588993083	-0.02677270124714686	-0.01762059101125972	0.2472454764086533	-0.00196065687032392	0.08108898030535402	-0.1420792373984228	0.2734485080762142	0.2734485080762497	-0.06977112835634693	-0.001224001357259295	0.09915088421233839	0.01998884160365008	0.2115677038036067	-0.1915255446629747	-0.0411340032846295	-0.3947241119627796	0.3822434220170444	-0.1107663246560402	-0.1099172219642632	-39.2144481583788	74.6021839696589	-25.48289787018875	-6.397883191473048	-33.44864056153343	-675.9335197696148	83.45666284027557	-1.553014645247101	-0.893110828033673	-0.5764183956373397	7.825789869677223	-0.08531736027360731	2.613424198807993	-4.501002452509917	8.667988549727028	8.667988549730348	-2.144013920560752	-0.09913328333378496	3.083809626433034	0.5951081185122659	1.667381915040576e-07	4.528615157677021e-09	-1.287596280857825e-06	1.626636985910625e-07	1.369816534277139e-07	-4.799098877172959e-07	-4.971066859961591e-07
0.04	-0.007880200558701388	0.09554698482618866	0.9422533242801556	0.182876551790097	-0.2322011187981321	-0.2594619084430049	-0.04241361438646792	0.0805016245741248	0.08050162457412485	0.1726541812395471	0.1744934827115796	0.03513447345590049	-0.00291093812615622	-0.06664630309804634	-0.03573468094461166	-0.02349866020808308	0.3254591279796156	-0.003030438361232472	0.1060982417001963	-0.1856257608847591	0.3597710034982515	0.359771003498292	-0.09047685373846635	-0.001293017197149843	0.1295862911020187	0.02563149686437971	0.2038678570358106	-0.1913850868786807	-0.03894592829833867	-0.3839628230198674	0.3649783050665077	-0.1039422920538832	-0.1040429762449753	-39.31843719042649	69.42385956800472	-23.49432444305116	-6.636767233949559	-30.09323554451949	-674.1566535927576	85.99416086943704	-1.655833574351803	-0.9022067773065605	-0.6089776292809183	7.919633731468519	-0.1422358186271236	2.316236103663531	-4.153624496188853	8.685492231833047	8.685492231829675	-1.985015204053679	0.1826982662234125	3.028219575241831	0.5256324306203806	1.880073730792047e-07	6.315782900853171e-10	-1.450007804192688e-06	1.729125244420408e-07	1.596217568057542e-07	-6.010914247976175e-07	-5.574652841925681e-07
0.05	-0.00862364739633692	0.09514526405469052	0.9419885892749023	0.1865138834259301	-0.2322374687906809	-0.2582807721665082	-0.04447947487212654	0.08452161131665027	0.08452161131664895	0.171651128706901	0.1744814030600061	0.03657794939476728	-0.002628129059610359	-0.08195881126889344	-0.04456253990464344	-0.02946725652482746	0.4016176069447217	-0.004266179755190279	0.1299740870049524	-0.2272380940212499	0.4438256335394709	0.4438256335395049	-0.1099098204394972	-0.001129280255247682	0.1589524497001265	0.03086859314268818	0.1975712710762368	-0.1816586060388751	-0.03731517012965765	-0.377584855354413	0.3565770501408985	-0.107633617816153	-0.09905856047535574	-39.44843844097871	66.68247629218033	-25.62242251235018	-6.246136877237592	-28.4913551826058	-672.8395803838314	80.43598039971353	-1.456304983359286	-0.8660033306478575	-0.5937591827262655	7.405520275793493	-0.1184092468633876	2.400084740024776	-4.11880138840751	8.205303896840833	8.205303896841503	-1.889074050684983	-0.06765898804709408	2.867379520513615	0.5132813668648062	1.846252853714971e-07	-8.375576107699285e-09	-1.423750443827398e-06	1.498073309053108e-07	1.671601247960321e-07	-6.852189211531326e-07	-5.394792979764611e-07
0.06	-0.009517688424665825	0.09465667911853265	0.9416635765965101	0.1909011129107644	-0.2322870093865857	-0.2568655122377358	-0.04695221142235646	0.08937011546090294	0.08937011546090248	0.1704604191777352	0.1744707866986034	0.03831040002329853	-0.002294842402195701	-0.09676514123605394	-0.05310751387656135	-0.03555419483579386	0.4754386977803005	-0.005668559032479209	0.152922972155433	-0.2670009737988648	0.5254744838436676	0.5254744838436933	-0.1280082530428171	-0.001000359162173719	0.1873812290349682	0.03572701503814617	0.1912746851166654	-0.1719321251990677	-0.03568441196097719	-0.3712068876889562	0.3481757952152912	-0.1113249435784205	-0.09407414470573595	-39.60221923043161	64.0109287271279	-27.75875794754459	-5.830815979895066	-27.05686377705105	-670.4702690905759	74.68343804798204	-1.55459793361442	-0.8456297796838409	-0.6326460281253219	7.45215610556305	-0.175563395293339	2.130844072808386	-3.783733824413623	8.20433628442853	8.204336284424809	-1.718108384511499	0.1757350964578002	2.840743722588598	0.44989755405028	1.802052494834587e-07	-1.759789334886043e-08	-1.389549130464207e-06	1.252977576048879e-07	1.740626302436673e-07	-7.677862473728662e-07	-5.181945924166693e-07
0.07000000000000001	-0.01055782203872978	0.09408400226339239	0.9412769056072038	0.1960159128218903	-0.2323514148367476	-0.2552269359877767	-0.04981293644988497	0.09502396905705092	0.09502396905705189	0.1690954866843421	0.1744629071009972	0.04032261167448911	-0.001914813263943463	-0.1111811266911851	-0.06138380047061563	-0.04180916319992684	0.5471413356307007	-0.007220550648281927	0.1746499453868095	-0.3048486344324423	0.6048857446499711	0.6048857446499578	-0.1447784429211297	-0.0006101937498085967	0.2148994064577295	0.04023564639358036	0.1846242710762807	-0.1671482311929327	-0.0338372768267093	-0.3651399996269966	0.3384570638911719	-0.1098181947277049	-0.08884250962999281	-39.77736841213014	61.07899870597871	-27.71124799282221	-5.731578298859572	-25.4736886602426	-668.6112552076543	73.27279760324174	-1.373011032870554	-0.8119847010860175	-0.626450824780373	6.972329555795099	-0.1463849694100743	2.172329595316913	-3.740972591570446	7.74791138083507	7.747911380831287	-1.626708733336845	-0.03446552752666612	2.683131878075597	0.4446679689935383	1.675562566915942e-07	-2.362503194797799e-08	-1.279554213832946e-06	1.099209758578641e-07	1.714318715657198e-07	-8.102876284149694e-07	-4.835455536260844e-07
0.08	-0.01173969794362944	0.09342989122194748	0.9408267792174112	0.2018363414977228	-0.2324316137880048	-0.2533753488761018	-0.05304327616549767	0.1014596133416862	0.1014596133416885	0.167568805403397	0.1744579045992737	0.04260516052509815	-0.001491033403596175	-0.1251135994026299	-0.06939435113749286	-0.04824527493300397	0.6165644507217624	-0.008827259251537854	0.1955251444987712	-0.3409239114156368	0.6818326215404259	0.6818326215403826	-0.160358010553272	-0.0004249399835445746	0.2414486689187181	0.04447715945715702	0.1779738570359097	-0.1623643371867965	-0.03199014169246558	-0.3590731115650259	0.3287383325670559	-0.108311445876987	-0.08361087455424079	-39.97117316786659	58.20946863116747	-27.66653160764057	-5.616223639370061	-24.04174014601681	-665.8161667086141	71.69788462594245	-1.457895384877089	-0.7924825942484809	-0.6688747019141507	6.996251553695318	-0.186506792783971	1.960489248925378	-3.42925709433697	7.711459501258757	7.711459501256872	-1.479983935277475	0.1347527672375979	2.646960730233988	0.3964738956787716	1.543763634543216e-07	-2.944602998954436e-08	-1.164669387313422e-06	9.513340646912408e-08	1.681860635893476e-07	-8.50204109768193e-07	-4.480342997883516e-07
